<?xml version="1.0" encoding="UTF-8" standalone="no"?>
<svg
   xmlns:dc="http://purl.org/dc/elements/1.1/"
   xmlns:cc="http://creativecommons.org/ns#"
   xmlns:rdf="http://www.w3.org/1999/02/22-rdf-syntax-ns#"
   xmlns:svg="http://www.w3.org/2000/svg"
   xmlns="http://www.w3.org/2000/svg"
   xmlns:sodipodi="http://sodipodi.sourceforge.net/DTD/sodipodi-0.dtd"
   xmlns:inkscape="http://www.inkscape.org/namespaces/inkscape"
   viewBox="0 0 64 64"
   version="1.1"
   id="svg18"
   sodipodi:docname="1f970.svg"
   inkscape:version="0.92.2 (5c3e80d, 2017-08-06)">
  <title
     id="title4523">Smiling Face With Hearts</title>
  <metadata
     id="metadata24">
    <rdf:RDF>
      <cc:Work
         rdf:about="">
        <dc:format>image/svg+xml</dc:format>
        <dc:type
           rdf:resource="http://purl.org/dc/dcmitype/StillImage" />
        <dc:title>Smiling Face With Hearts</dc:title>
        <dc:description>Used 1F60A emoji &amp; added hearts (2764).</dc:description>
        <dc:date>2019-04-20</dc:date>
        <cc:license
           rdf:resource="http://creativecommons.org/licenses/by/4.0/" />
        <dc:contributor>
          <cc:Agent>
            <dc:title>Jordan Irwin (AntumDeluge)</dc:title>
          </cc:Agent>
        </dc:contributor>
      </cc:Work>
      <cc:License
         rdf:about="http://creativecommons.org/licenses/by/4.0/">
        <cc:permits
           rdf:resource="http://creativecommons.org/ns#Reproduction" />
        <cc:permits
           rdf:resource="http://creativecommons.org/ns#Distribution" />
        <cc:requires
           rdf:resource="http://creativecommons.org/ns#Notice" />
        <cc:requires
           rdf:resource="http://creativecommons.org/ns#Attribution" />
        <cc:permits
           rdf:resource="http://creativecommons.org/ns#DerivativeWorks" />
      </cc:License>
    </rdf:RDF>
  </metadata>
  <defs
     id="defs22" />
  <sodipodi:namedview
     pagecolor="#ffffff"
     bordercolor="#666666"
     borderopacity="1"
     objecttolerance="10"
     gridtolerance="10"
     guidetolerance="10"
     inkscape:pageopacity="0"
     inkscape:pageshadow="2"
     inkscape:window-width="1920"
     inkscape:window-height="1025"
     id="namedview20"
     showgrid="false"
     inkscape:zoom="2.6074563"
     inkscape:cx="-58.277816"
     inkscape:cy="26.698658"
     inkscape:window-x="-8"
     inkscape:window-y="-8"
     inkscape:window-maximized="1"
     inkscape:current-layer="svg18" />
  <g
     id="g865">
    <circle
       style="fill:#ffdd67"
       id="circle2"
       r="30"
       cy="32"
       cx="32" />
    <g
       style="fill:#664e27"
       id="g16">
      <path
         inkscape:connector-curvature="0"
         id="path10"
         d="m 44.6,40.3 c -8.1,5.7 -17.1,5.6 -25.2,0 -1,-0.7 -1.8,0.5 -1.2,1.6 2.5,4 7.4,7.7 13.8,7.7 6.4,0 11.3,-3.6 13.8,-7.7 0.6,-1.1 -0.2,-2.3 -1.2,-1.6" />
      <path
         inkscape:connector-curvature="0"
         id="path12"
         d="m 28.5,26.9 c -1.9,-5.1 -4.7,-7.7 -7.5,-7.7 -2.8,0 -5.6,2.6 -7.5,7.7 -0.2,0.5 0.8,1.4 1.3,0.9 1.8,-1.9 4,-2.7 6.2,-2.7 2.2,0 4.4,0.8 6.2,2.7 0.6,0.5 1.5,-0.4 1.3,-0.9" />
      <path
         inkscape:connector-curvature="0"
         id="path14"
         d="m 50.4,26.9 c -1.9,-5.1 -4.7,-7.7 -7.5,-7.7 -2.8,0 -5.6,2.6 -7.5,7.7 -0.2,0.5 0.8,1.4 1.3,0.9 1.8,-1.9 4,-2.7 6.2,-2.7 2.2,0 4.4,0.8 6.2,2.7 0.5,0.5 1.5,-0.4 1.3,-0.9" />
    </g>
    <g
       id="g843">
      <path
         id="path4581-7"
         d="m 56.827599,3.4030344 c -4.525147,-5.3906775 -9.569519,-8.04e-5 -8.83027,3.3377152 -2.160227,-2.9531835 -9.253688,-2.8382587 -8.553544,3.9938564 0.78316,7.612892 13.371207,9.43132 14.503154,10.1132 0.378638,-1.104284 7.739634,-11.6796516 2.88066,-17.4447716"
         inkscape:connector-curvature="0"
         style="fill:#ff5a79;stroke-width:0.35811505" />
      <path
         id="path4581-7-8"
         d="m 58.468131,52.337786 c -0.0099,-6.023487 -6.281358,-5.255317 -7.629125,-2.658425 0.203823,-3.124787 -4.515418,-6.944846 -7.807816,-2.075768 -3.666685,5.427166 3.597452,13.533717 3.965993,14.602929 0.854972,-0.516913 11.494352,-3.416139 11.470948,-9.868736"
         inkscape:connector-curvature="0"
         style="fill:#ff5a79;stroke-width:0.30648488" />
      <path
         id="path4581-7-5"
         d="M 17.068044,41.295413 C 12.246247,36.609886 7.9735233,42.220689 8.9988355,45.32132 6.6602691,42.723615 -0.06997977,43.518757 1.2560633,49.944043 2.7364997,57.103323 14.87555,57.614252 16.017246,58.152829 16.270307,57.066746 22.243308,46.304517 17.068044,41.295413"
         inkscape:connector-curvature="0"
         style="fill:#ff5a79;stroke-width:0.34209639" />
    </g>
  </g>
</svg>
